<?xml version="1.0" encoding="UTF-8" standalone="no"?>
<!-- Created with Inkscape (http://www.inkscape.org/) -->

<svg
   xmlns:dc="http://purl.org/dc/elements/1.1/"
   xmlns:cc="http://creativecommons.org/ns#"
   xmlns:rdf="http://www.w3.org/1999/02/22-rdf-syntax-ns#"
   xmlns:svg="http://www.w3.org/2000/svg"
   xmlns="http://www.w3.org/2000/svg"
   xmlns:sodipodi="http://sodipodi.sourceforge.net/DTD/sodipodi-0.dtd"
   xmlns:inkscape="http://www.inkscape.org/namespaces/inkscape"
   width="6.6040001mm"
   height="7.9375mm"
   viewBox="0 0 6.6040001 7.9375"
   version="1.1"
   id="svg8"
   inkscape:export-filename="C:\Users\user\fanfan.png"
   inkscape:export-xdpi="600"
   inkscape:export-ydpi="600"
   inkscape:version="0.92.3 (2405546, 2018-03-11)"
   sodipodi:docname="plasmuscrisp.svg">
  <defs
     id="defs2" />
  <sodipodi:namedview
     id="base"
     pagecolor="#ffffff"
     bordercolor="#666666"
     borderopacity="1.0"
     inkscape:pageopacity="0.0"
     inkscape:pageshadow="2"
     inkscape:zoom="22.627417"
     inkscape:cx="19.614164"
     inkscape:cy="12.975288"
     inkscape:document-units="mm"
     inkscape:current-layer="layer2"
     showgrid="true"
     inkscape:window-width="1920"
     inkscape:window-height="1017"
     inkscape:window-x="-8"
     inkscape:window-y="-8"
     inkscape:window-maximized="1">
    <inkscape:grid
       type="xygrid"
       id="grid1475" />
  </sodipodi:namedview>
  <metadata
     id="metadata5">
    <rdf:RDF>
      <cc:Work
         rdf:about="">
        <dc:format>image/svg+xml</dc:format>
        <dc:type
           rdf:resource="http://purl.org/dc/dcmitype/StillImage" />
        <dc:title />
      </cc:Work>
    </rdf:RDF>
  </metadata>
  <g
     inkscape:label="Calque 1"
     inkscape:groupmode="layer"
     id="layer1"
     transform="translate(-91.192048,-138.06101)" />
  <g
     inkscape:groupmode="layer"
     id="layer2"
     inkscape:label="fantôme pixel perfect">
    <g
       id="g755"
       transform="translate(-8.995833,-0.2645833)">
      <path
         inkscape:connector-curvature="0"
         id="rect1477"
         d="M 11.1125,0.26458336 V 0.52916669 H 10.847916 10.583333 V 0.79375 H 10.31875 V 1.0583333 H 10.054166 V 1.3229167 H 9.789583 V 1.5875 H 9.5249997 V 1.8520833 2.1166667 H 9.2604164 V 2.38125 2.6458333 2.9104167 3.175 H 9.5249997 V 2.9104167 2.6458333 2.38125 H 9.789583 V 2.1166667 1.8520833 h 0.264583 V 1.5875 H 10.31875 V 1.3229167 h 0.264583 V 1.0583333 h 0.264583 V 0.79375 H 11.1125 11.377083 V 0.52916669 h 0.264583 0.264584 0.264583 0.264584 H 12.7 12.964583 V 0.79375 h 0.264584 v 0.2645833 h 0.264583 v 0.2645834 h 0.264583 V 1.5875 h 0.264584 V 1.8520833 2.1166667 H 14.2875 V 2.38125 h 0.264583 V 2.1166667 1.8520833 H 14.2875 V 1.5875 1.3229167 H 14.022917 V 1.0583333 H 13.758333 V 0.79375 H 13.49375 V 0.52916669 H 13.229167 V 0.26458336 H 12.964583 12.7 12.435417 12.170833 11.90625 11.641666 11.377083 Z M 14.552083,2.38125 V 2.6458333 2.9104167 3.175 3.4395833 3.7041666 h 0.264584 V 3.4395833 3.175 2.9104167 2.6458333 2.38125 Z m 0.264584,1.3229166 V 3.96875 4.2333333 4.4979166 4.7625 5.0270833 5.2916666 H 15.08125 V 5.0270833 4.7625 4.4979166 4.2333333 3.96875 3.7041666 Z m 0.264583,1.5875 V 5.55625 5.8208333 6.0854166 6.3499999 h 0.264583 V 6.6145833 6.8791666 H 15.08125 V 7.1437499 H 14.816667 V 7.4083333 H 14.552083 V 7.6729166 H 14.2875 V 7.4083333 H 14.022917 V 7.6729166 7.9374999 H 13.758333 13.49375 13.229167 12.964583 12.7 12.435417 12.170833 11.90625 11.641666 V 7.6729166 H 11.90625 V 7.4083333 7.1437499 H 11.641666 V 7.4083333 H 11.377083 V 7.6729166 H 11.1125 10.847916 10.583333 10.31875 10.054166 9.789583 9.5249997 V 7.4083333 H 9.2604164 V 7.1437499 6.8791666 6.6145833 6.3499999 6.0854166 5.8208333 5.55625 5.2916666 5.0270833 4.7625 4.4979166 4.2333333 3.96875 3.7041666 3.4395833 3.175 H 8.995833 V 3.4395833 3.7041666 3.96875 4.2333333 4.4979166 4.7625 5.0270833 5.2916666 5.55625 5.8208333 6.0854166 6.3499999 6.6145833 6.8791666 7.1437499 7.4083333 7.6729166 h 0.2645834 v 0.2645833 h 0.2645833 0.2645833 0.264583 0.264584 0.264583 0.264583 0.264584 0.264583 v 0.2645834 h 0.264583 0.264584 0.264583 0.264584 0.264583 0.264583 0.264584 0.264583 0.264583 0.264584 0.264583 V 7.9374999 h 0.264583 0.264584 V 7.6729166 H 15.08125 V 7.4083333 h 0.264583 V 7.1437499 h 0.264584 V 6.8791666 6.6145833 6.3499999 6.0854166 H 15.345833 V 5.8208333 5.55625 5.2916666 Z"
         style="opacity:1;fill:#7cd5f7;fill-opacity:1;fill-rule:nonzero;stroke:none;stroke-width:0.09999998;stroke-linecap:round;stroke-linejoin:round;stroke-miterlimit:10;stroke-dasharray:none;stroke-dashoffset:3.77952766;stroke-opacity:1;paint-order:normal" />
      <path
         inkscape:connector-curvature="0"
         id="rect1477-8-5-7-8-4-3-1-0031-6"
         d="M 12.964583,0.79375009 V 1.0583334 h 0.264584 V 0.79375009 Z M 13.229167,1.0583334 V 1.3229168 H 13.49375 V 1.0583334 Z m 0.264583,0.2645834 v 0.2645833 h 0.264583 V 1.3229168 Z m 0.79375,1.0583333 v 0.2645833 0.2645833 0.2645834 0.2645833 0.2645833 h 0.264583 V 3.4395834 3.1750001 2.9104167 2.6458334 2.3812501 Z m 0.264583,1.3229166 V 3.9687501 4.2333334 4.4979167 4.7625 5.0270834 5.2916667 h 0.264584 V 5.0270834 4.7625 4.4979167 4.2333334 3.9687501 3.7041667 Z m 0.264584,1.5875 V 5.55625 5.8208334 6.0854167 6.35 6.6145833 h 0.264583 v 0.2645834 h 0.264583 V 6.6145833 6.35 H 15.08125 V 6.0854167 5.8208334 5.55625 5.2916667 Z m 0.264583,1.5875 H 14.816667 14.552083 V 7.14375 H 14.2875 V 6.8791667 H 14.022917 V 7.14375 7.4083333 H 14.2875 v 0.2645834 h 0.264583 V 7.4083333 h 0.264584 V 7.14375 H 15.08125 Z M 14.022917,7.4083333 H 13.758333 V 7.6729167 H 13.49375 V 7.4083333 H 13.229167 12.964583 V 7.6729167 H 12.7 12.435417 12.170833 V 7.4083333 7.14375 6.8791667 H 11.90625 11.641667 V 7.14375 H 11.90625 V 7.4083333 7.6729167 H 11.641667 V 7.9375 h 0.264583 0.264583 0.264584 0.264583 0.264583 0.264584 0.264583 0.264583 0.264584 V 7.6729167 Z M 11.641667,7.14375 H 11.377083 11.1125 V 7.4083333 H 10.847917 10.583333 10.31875 10.054167 9.7895834 9.5250001 v 0.2645834 h 0.2645833 0.2645836 0.264583 0.264583 0.264584 0.264583 0.264583 V 7.4083333 h 0.264584 z M 9.5250001,7.4083333 V 7.14375 H 9.2604167 v 0.2645833 z"
         style="opacity:1;fill:#bfffff;fill-opacity:1;fill-rule:nonzero;stroke:none;stroke-width:0.09999998;stroke-linecap:round;stroke-linejoin:round;stroke-miterlimit:10;stroke-dasharray:none;stroke-dashoffset:3.77952766;stroke-opacity:1;paint-order:normal" />
      <g
         transform="translate(8.9958334,0.2645834)"
         id="g732">
        <path
           inkscape:connector-curvature="0"
           style="opacity:1;fill:#edffff;fill-opacity:1;fill-rule:nonzero;stroke:none;stroke-width:0.37795269;stroke-linecap:round;stroke-linejoin:round;stroke-miterlimit:10;stroke-dasharray:none;stroke-dashoffset:3.77952766;stroke-opacity:1;paint-order:normal"
           d="M 9,1 V 2 H 8 7 V 3 H 6 V 4 H 5 V 5 H 4 V 6 H 3 V 7 8 H 2 v 1 1 1 H 1 v 1 1 1 1 1 1 1 1 1 1 1 1 1 1 1 h 1 v 1 h 1 1 1 1 1 1 v -1 h 1 1 v -1 h 1 1 v 1 1 1 h 1 1 1 v -1 h 1 1 v 1 h 1 v -1 h 1 v -1 -1 h 1 v 1 h 1 v -1 h 1 1 V 24 H 22 V 23 22 21 20 19 H 21 V 18 17 16 15 14 13 H 20 V 12 11 10 9 8 7 H 19 V 6 5 H 18 17 V 4 H 16 V 3 H 15 V 2 1 H 14 13 12 11 10 Z M 6,8 h 1 1 1 1 v 1 1 1 1 1 1 H 9 v 1 H 8 7 V 14 H 6 V 13 12 11 10 9 Z m 6,0 h 1 1 1 1 v 1 1 1 1 1 1 h -1 v 1 H 14 13 V 14 H 12 V 13 12 11 10 9 Z m 0,9 h 1 1 1 v 1 h 1 v 1 h -1 -1 -1 -1 v -1 z"
           transform="scale(0.26458333)"
           id="rect1477-8-5-7-8-4-3-1-0031-6-75-5" />
        <g
           id="g711">
          <g
             id="g693">
            <path
               style="opacity:1;fill:#bfffff;fill-opacity:1;fill-rule:nonzero;stroke:none;stroke-width:0.37795269;stroke-linecap:round;stroke-linejoin:round;stroke-miterlimit:10;stroke-dasharray:none;stroke-dashoffset:3.77952766;stroke-opacity:1;paint-order:normal"
               d="m 12,18 v 1 h 1 1 1 v -1 h -1 -1 z"
               transform="scale(0.26458333)"
               id="rect1477-8-5-7-8-4-3-1-0031-6-59"
               inkscape:connector-curvature="0" />
            <path
               style="opacity:1;fill:#add5f8;fill-opacity:1;fill-rule:nonzero;stroke:none;stroke-width:0.37795269;stroke-linecap:round;stroke-linejoin:round;stroke-miterlimit:10;stroke-dasharray:none;stroke-dashoffset:3.77952766;stroke-opacity:1;paint-order:normal"
               d="m 12,17 v 1 h 1 1 1 v -1 h -1 -1 z m 3,1 v 1 h 1 v -1 z"
               transform="scale(0.26458333)"
               id="rect1477-8-5-7-8-4-3-1-0031-6-242"
               inkscape:connector-curvature="0" />
          </g>
          <g
             id="g679">
            <path
               style="opacity:1;fill:#bfffff;fill-opacity:1;fill-rule:nonzero;stroke:none;stroke-width:0.37795269;stroke-linecap:round;stroke-linejoin:round;stroke-miterlimit:10;stroke-dasharray:none;stroke-dashoffset:3.77952766;stroke-opacity:1;paint-order:normal"
               d="m 6,12 v 1 h 1 v -1 z m 3,0 v 1 h 1 v -1 z"
               transform="scale(0.26458333)"
               id="rect1477-8-5-7-8-4-3-1-0031-6-83"
               inkscape:connector-curvature="0" />
            <path
               style="opacity:1;fill:#add5f8;fill-opacity:1;fill-rule:nonzero;stroke:none;stroke-width:0.37795269;stroke-linecap:round;stroke-linejoin:round;stroke-miterlimit:10;stroke-dasharray:none;stroke-dashoffset:3.77952766;stroke-opacity:1;paint-order:normal"
               d="m 6,8 v 1 1 1 1 H 7 V 11 10 9 h 1 1 v 1 1 1 h 1 V 11 10 9 8 H 9 8 7 Z m 3,4 H 8 7 v 1 h 1 1 z"
               transform="scale(0.26458333)"
               id="rect1477-8-5-7-8-4-3-1-0031-6-242-6"
               inkscape:connector-curvature="0" />
            <path
               style="opacity:1;fill:#eeddff;fill-opacity:1;fill-rule:nonzero;stroke:none;stroke-width:0.37795269;stroke-linecap:round;stroke-linejoin:round;stroke-miterlimit:10;stroke-dasharray:none;stroke-dashoffset:3.77952766;stroke-opacity:1;paint-order:normal"
               d="m 6,13 v 1 h 1 v 1 h 1 1 v -1 h 1 V 13 H 9 8 7 Z"
               transform="scale(0.26458333)"
               id="rect1477-8-5-7-8-4-3-1-0031-6-242-57"
               inkscape:connector-curvature="0" />
            <path
               style="opacity:1;fill:#e6e6e6;fill-opacity:1;fill-rule:nonzero;stroke:none;stroke-width:0.37795269;stroke-linecap:round;stroke-linejoin:round;stroke-miterlimit:10;stroke-dasharray:none;stroke-dashoffset:3.77952766;stroke-opacity:1;paint-order:normal"
               d="m 8,9 v 1 1 1 H 9 V 11 10 9 Z"
               transform="scale(0.26458333)"
               id="rect1477-8-5-7-8-4-3-1-0031-6-242-6-4-43"
               inkscape:connector-curvature="0" />
            <path
               style="opacity:1;fill:#ffffff;fill-opacity:1;fill-rule:nonzero;stroke:none;stroke-width:0.37795269;stroke-linecap:round;stroke-linejoin:round;stroke-miterlimit:10;stroke-dasharray:none;stroke-dashoffset:3.77952766;stroke-opacity:1;paint-order:normal"
               d="m 7,9 v 1 1 1 H 8 V 11 10 9 Z"
               transform="scale(0.26458333)"
               id="rect1477-8-5-7-8-4-3-1-0031-6-75-5-5-9-7-4-1"
               inkscape:connector-curvature="0" />
          </g>
          <g
             id="g687">
            <path
               style="opacity:1;fill:#eeddff;fill-opacity:1;fill-rule:nonzero;stroke:none;stroke-width:0.37795269;stroke-linecap:round;stroke-linejoin:round;stroke-miterlimit:10;stroke-dasharray:none;stroke-dashoffset:3.77952766;stroke-opacity:1;paint-order:normal"
               d="m 12,13 v 1 h 1 1 v 1 h 1 v -1 h 1 v -1 h -1 -1 -1 z"
               transform="scale(0.26458333)"
               id="rect1477-8-5-7-8-4-3-1-0031-6-242-57-819"
               inkscape:connector-curvature="0" />
            <rect
               style="opacity:1;fill:#eed1ff;fill-opacity:1;fill-rule:nonzero;stroke:none;stroke-width:0.09999999;stroke-linecap:round;stroke-linejoin:round;stroke-miterlimit:10;stroke-dasharray:none;stroke-dashoffset:3.77952766;stroke-opacity:1;paint-order:normal"
               id="rect1477-8-5-7-8-4-3-1-0031-6-242-57-9-9"
               width="0.26458332"
               height="0.2645897"
               x="3.4395833"
               y="3.7041731" />
            <path
               style="opacity:1;fill:#e6e6e6;fill-opacity:1;fill-rule:nonzero;stroke:none;stroke-width:0.37795269;stroke-linecap:round;stroke-linejoin:round;stroke-miterlimit:10;stroke-dasharray:none;stroke-dashoffset:3.77952766;stroke-opacity:1;paint-order:normal"
               d="m 14,9 v 1 1 1 h 1 V 11 10 9 Z"
               transform="scale(0.26458333)"
               id="rect1477-8-5-7-8-4-3-1-0031-6-242-6-4-6-4"
               inkscape:connector-curvature="0" />
            <path
               style="opacity:1;fill:#ffffff;fill-opacity:1;fill-rule:nonzero;stroke:none;stroke-width:0.37795269;stroke-linecap:round;stroke-linejoin:round;stroke-miterlimit:10;stroke-dasharray:none;stroke-dashoffset:3.77952766;stroke-opacity:1;paint-order:normal"
               d="m 13,9 v 1 1 1 h 1 V 11 10 9 Z"
               transform="scale(0.26458333)"
               id="rect1477-8-5-7-8-4-3-1-0031-6-75-5-5-9-7-4-0"
               inkscape:connector-curvature="0" />
            <path
               inkscape:connector-curvature="0"
               style="opacity:1;fill:#add5f8;fill-opacity:1;fill-rule:nonzero;stroke:none;stroke-width:0.09999999;stroke-linecap:round;stroke-linejoin:round;stroke-miterlimit:10;stroke-dasharray:none;stroke-dashoffset:3.77952766;stroke-opacity:1;paint-order:normal"
               d="M 3.175,2.1166667 V 2.38125 2.6458334 2.9104167 3.175 H 3.4395834 V 2.9104167 2.6458334 2.38125 H 3.7041667 3.96875 V 2.6458334 2.9104167 3.175 H 4.2333333 V 2.9104167 2.6458334 2.38125 2.1166667 H 3.96875 3.7041667 3.4395834 Z M 3.96875,3.175 H 3.7041667 3.4395834 V 3.4395834 H 3.7041667 3.96875 Z"
               id="rect1477-8-5-7-8-4-3-1-0031-6-242-6-6" />
            <path
               inkscape:connector-curvature="0"
               style="opacity:1;fill:#bfffff;fill-opacity:1;fill-rule:nonzero;stroke:none;stroke-width:0.09999999;stroke-linecap:round;stroke-linejoin:round;stroke-miterlimit:10;stroke-dasharray:none;stroke-dashoffset:3.77952766;stroke-opacity:1;paint-order:normal"
               d="M 3.175,3.175 V 3.4395833 H 3.4395834 V 3.175 Z m 0.79375,0 V 3.4395833 H 4.2333333 V 3.175 Z"
               id="rect1477-8-5-7-8-4-3-1-0031-6-83-9" />
          </g>
        </g>
      </g>
    </g>
  </g>
</svg>
